{  "asset": {    "version": "2.0",    "generator": "THREE.GLTFExporter r167"  },  "scenes": [    {      "name": "AuxScene",      "nodes": [        3      ]    }  ],  "scene": 0,  "nodes": [    {      "mesh": 0    },    {      "mesh": 1    },    {      "mesh": 2    },    {      "children": [        0,        1,        2      ]    }  ],  "bufferViews": [    {      "buffer": 0,      "byteOffset": 0,      "byteLength": 9072,      "target": 34962,      "byteStride": 12    },    {      "buffer": 0,      "byteOffset": 9072,      "byteLength": 9072,      "target": 34962,      "byteStride": 12    },    {      "buffer": 0,      "byteOffset": 18144,      "byteLength": 6048,      "target": 34962,      "byteStride": 8    },    {      "buffer": 0,      "byteOffset": 24192,      "byteLength": 9072,      "target": 34962,      "byteStride": 12    },    {      "buffer": 0,      "byteOffset": 33264,      "byteLength": 9072,      "target": 34962,      "byteStride": 12    },    {      "buffer": 0,      "byteOffset": 42336,      "byteLength": 6048,      "target": 34962,      "byteStride": 8    },    {      "buffer": 0,      "byteOffset": 48384,      "byteLength": 9072,      "target": 34962,      "byteStride": 12    },    {      "buffer": 0,      "byteOffset": 57456,      "byteLength": 9072,      "target": 34962,      "byteStride": 12    },    {      "buffer": 0,      "byteOffset": 66528,      "byteLength": 6048,      "target": 34962,      "byteStride": 8    }  ],  "buffers": [    {      "byteLength": 72576,      "uri": "data:application/octet-stream;base64,"    }  ],  "accessors": [    {      "bufferView": 0,      "componentType": 5126,      "count": 756,      "max": [        0.5894345045089722,        0.5894345045089722,        30.294715881347656      ],      "min": [        -0.5894345045089722,        -0.5894345045089722,        -30.29471778869629      ],      "type": "VEC3"    },    {      "bufferView": 1,      "componentType": 5126,      "count": 756,      "max": [        0.9810785055160522,        0.9810785055160522,        0.9012420773506165      ],      "min": [        -0.9810785055160522,        -0.9810785055160522,        -0.6856898665428162      ],      "type": "VEC3"    },    {      "bufferView": 2,      "componentType": 5126,      "count": 756,      "max": [        1,        1      ],      "min": [        0,        0.010010071098804474      ],      "type": "VEC2"    },    {      "bufferView": 3,      "componentType": 5126,      "count": 756,      "max": [        1.0090371370315552,        1.0090371370315552,        28.724763870239258      ],      "min": [        -1.0090371370315552,        -1.0090371370315552,        26.648588180541992      ],      "type": "VEC3"    },    {      "bufferView": 4,      "componentType": 5126,      "count": 756,      "max": [        0.9362162947654724,        0.9362162947654724,        0.904141366481781      ],      "min": [        -0.9362162947654724,        -0.9362162947654724,        -0.9488204717636108      ],      "type": "VEC3"    },    {      "bufferView": 5,      "componentType": 5126,      "count": 756,      "max": [        1,        1      ],      "min": [        0,        0.010010071098804474      ],      "type": "VEC2"    },    {      "bufferView": 6,      "componentType": 5126,      "count": 756,      "max": [        1.0090371370315552,        1.0090371370315552,        11.093892097473145      ],      "min": [        -1.0090371370315552,        -1.0090371370315552,        9.055842399597168      ],      "type": "VEC3"    },    {      "bufferView": 7,      "componentType": 5126,      "count": 756,      "max": [        0.9166234135627747,        0.9166234135627747,        0.9509262442588806      ],      "min": [        -0.9166234135627747,        -0.9166234135627747,        -0.9269387125968933      ],      "type": "VEC3"    },    {      "bufferView": 8,      "componentType": 5126,      "count": 756,      "max": [        1,        1      ],      "min": [        0,        0.010010071098804474      ],      "type": "VEC2"    }  ],  "materials": [    {      "pbrMetallicRoughness": {        "baseColorFactor": [          0.06094323934375183,          0.005183090709016793,          0.000578173374576,          1        ],        "metallicFactor": 0.5,        "roughnessFactor": 0.5      },      "doubleSided": true,      "name": "mat0"    }  ],  "meshes": [    {      "primitives": [        {          "mode": 4,          "attributes": {            "POSITION": 0,            "NORMAL": 1,            "TEXCOORD_0": 2          },          "material": 0        }      ]    },    {      "primitives": [        {          "mode": 4,          "attributes": {            "POSITION": 3,            "NORMAL": 4,            "TEXCOORD_0": 5          },          "material": 0        }      ]    },    {      "primitives": [        {          "mode": 4,          "attributes": {            "POSITION": 6,            "NORMAL": 7,            "TEXCOORD_0": 8          },          "material": 0        }      ]    }  ]}